<svg id="Capa_1" enable-background="new 0 0 499.024 499.024" height="512" viewBox="0 0 499.024 499.024" width="512" xmlns="http://www.w3.org/2000/svg"><path d="m102.048 219.355h291.078v91.935h-291.078z" fill="#baafb9"/><path d="m376.347 172.706h33.558c8.426 0 15.257 6.831 15.257 15.257v30.139h-64.072v-30.139c0-8.426 6.831-15.257 15.257-15.257z" fill="#aa9ea9"/><path d="m123.68 172.706h-33.558c-8.426 0-15.257 6.831-15.257 15.257v31.139h64.072v-31.139c0-8.426-6.83-15.257-15.257-15.257z" fill="#aa9ea9"/><g><path d="m497.744 407.979-38.32-172.9c-4.15-18.68-20.71-31.98-39.85-31.98h-48.4c-18.32 0-34.4 12.22-39.31 29.88l-3.67 13.16c-.95 3.42-4.07 5.79-7.62 5.79h-142.12c-3.55 0-6.67-2.37-7.62-5.79l-3.67-13.16c-4.91-17.66-20.99-29.88-39.31-29.88h-48.4c-19.14 0-35.7 13.3-39.85 31.98l-38.32 172.9c-4.71 21.24 3.78 43.22 21.53 55.79 9.55 6.76 20.41 9.94 31.11 9.94 20.33 0 40.11-11.47 49.29-31.71l22.12-48.74h81.595l1.974 2.106 7.867 5.389c4.31 2.952 9.411 4.532 14.635 4.532h36.215c5.224 0 10.325-1.58 14.635-4.532l7.867-5.389 1.898-2.106h81.674l22.12 48.74c14.02 30.89 52.71 41.37 80.4 21.77 14.49-10.26 22.81-26.8 22.81-44.09 0-3.88-.42-7.8-1.28-11.7z" fill="#d7d0d6"/><g><path d="m90.038 390.254 38.32-172.9c1.117-5.027 3.139-9.659 5.861-13.752-2.082-.328-4.208-.504-6.366-.504h-48.4c-19.14 0-35.7 13.3-39.85 31.98l-38.32 172.9c-4.71 21.24 3.78 43.22 21.53 55.79 9.55 6.76 20.41 9.94 31.11 9.94 20.33 0 40.11-11.47 49.29-31.71l1.007-2.219c-12.648-12.889-18.185-31.472-14.182-49.525z" fill="#c9bfc8"/></g><circle cx="169.062" cy="362.624" fill="#baafb9" r="54.164"/><circle cx="332.562" cy="362.624" fill="#baafb9" r="54.164"/><g fill="#aa9ea9"><path d="m163.28 360.852c0-20.501 11.416-38.345 28.213-47.543-6.83-3.109-14.436-4.848-22.43-4.848-29.914 0-54.164 24.25-54.164 54.164s24.25 54.164 54.164 54.164c9.413 0 18.273-2.406 25.985-6.629-18.729-8.525-31.768-27.388-31.768-49.308z"/><path d="m326.78 360.852c0-20.501 11.412-38.347 28.209-47.545-6.831-3.109-14.432-4.846-22.426-4.846-29.914 0-54.164 24.25-54.164 54.164s24.25 54.164 54.164 54.164c9.413 0 18.276-2.407 25.988-6.63-18.729-8.526-31.771-27.387-31.771-49.307z"/><circle cx="169.062" cy="362.624" r="21.567"/></g><path d="m163.28 360.852c0-6.947 1.312-13.586 3.695-19.688-10.915 1.054-19.479 10.274-19.479 21.461 0 11.719 9.401 21.266 21.055 21.541-3.376-7.061-5.271-14.965-5.271-23.314z" fill="#9b8e99"/><circle cx="329.965" cy="362.624" fill="#aa9ea9" r="21.567"/><path d="m326.78 360.852c0-6.976 1.322-13.643 3.724-19.767-.181-.005-.357-.027-.539-.027-11.892 0-21.567 9.675-21.567 21.567s9.675 21.567 21.567 21.567c.691 0 1.373-.04 2.047-.104-3.352-7.041-5.232-14.918-5.232-23.236z" fill="#9b8e99"/><g><path d="m258.67 351.376h-16.295c-4.142 0-7.5-3.358-7.5-7.5s3.358-7.5 7.5-7.5h16.295c4.142 0 7.5 3.358 7.5 7.5s-3.358 7.5-7.5 7.5z" fill="#8b8089"/></g><g><path d="m219.976 303.847h-9.073c-4.142 0-7.5-3.358-7.5-7.5s3.358-7.5 7.5-7.5h9.073c4.142 0 7.5 3.358 7.5 7.5s-3.358 7.5-7.5 7.5z" fill="#8b8089"/></g><g><path d="m289.124 303.847h-9.073c-4.142 0-7.5-3.358-7.5-7.5s3.358-7.5 7.5-7.5h9.073c4.142 0 7.5 3.358 7.5 7.5s-3.358 7.5-7.5 7.5z" fill="#8b8089"/></g><path d="m245.376 169.794-81.88-57.629c-1.913-1.346-3.051-3.539-3.051-5.878v-49.026c0-2.434 1.232-4.703 3.274-6.029l38.142-24.761c2.731-1.773 6.312-1.489 8.729.692l34.109 30.773c2.736 2.468 6.894 2.468 9.63 0l34.109-30.773c2.417-2.181 5.998-2.465 8.729-.692l38.142 24.761c2.042 1.326 3.274 3.594 3.274 6.029v49.026c0 2.339-1.138 4.532-3.051 5.878l-81.88 57.629c-2.484 1.747-5.795 1.747-8.276 0z" fill="#eb5569"/><g><path d="m248.608 131.02c-14.711-10.354-23.463-27.218-23.463-45.206v-24.065c0-2.434 1.232-4.703 3.274-6.029l8.038-5.218-25.868-23.338c-2.417-2.181-5.998-2.465-8.729-.692l-38.142 24.761c-2.042 1.326-3.274 3.594-3.274 6.029v49.026c0 2.339 1.138 4.532 3.051 5.878l81.88 57.629c2.482 1.747 5.793 1.747 8.274 0l25.025-17.613z" fill="#e53950"/></g><g><path d="m86.039 57.102c-4.142 0-7.5-3.358-7.5-7.5v-6.895c0-4.142 3.358-7.5 7.5-7.5s7.5 3.358 7.5 7.5v6.895c0 4.142-3.358 7.5-7.5 7.5z" fill="#62dbfb"/></g><g><path d="m114.001 78.935h-6.895c-4.142 0-7.5-3.358-7.5-7.5s3.358-7.5 7.5-7.5h6.895c4.142 0 7.5 3.358 7.5 7.5s-3.358 7.5-7.5 7.5z" fill="#62dbfb"/></g><g><path d="m85.273 106.898c-4.142 0-7.5-3.358-7.5-7.5v-6.895c0-4.142 3.358-7.5 7.5-7.5s7.5 3.358 7.5 7.5v6.895c0 4.142-3.358 7.5-7.5 7.5z" fill="#62dbfb"/></g><g><path d="m64.205 78.169h-6.895c-4.142 0-7.5-3.358-7.5-7.5s3.358-7.5 7.5-7.5h6.895c4.142 0 7.5 3.358 7.5 7.5s-3.358 7.5-7.5 7.5z" fill="#62dbfb"/></g><g><path d="m413.989 57.102c-4.142 0-7.5-3.358-7.5-7.5v-6.895c0-4.142 3.358-7.5 7.5-7.5s7.5 3.358 7.5 7.5v6.895c0 4.142-3.358 7.5-7.5 7.5z" fill="#62dbfb"/></g><g><path d="m392.921 78.935h-6.895c-4.142 0-7.5-3.358-7.5-7.5s3.358-7.5 7.5-7.5h6.895c4.142 0 7.5 3.358 7.5 7.5s-3.357 7.5-7.5 7.5z" fill="#62dbfb"/></g><g><path d="m414.755 106.898c-4.142 0-7.5-3.358-7.5-7.5v-6.895c0-4.142 3.358-7.5 7.5-7.5s7.5 3.358 7.5 7.5v6.895c0 4.142-3.358 7.5-7.5 7.5z" fill="#62dbfb"/></g><g><path d="m442.717 78.169h-6.895c-4.142 0-7.5-3.358-7.5-7.5s3.358-7.5 7.5-7.5h6.895c4.142 0 7.5 3.358 7.5 7.5s-3.358 7.5-7.5 7.5z" fill="#62dbfb"/></g><circle cx="390.126" cy="252.25" fill="#6cf5c2" r="13.154"/><circle cx="390.126" cy="324.444" fill="#8b8089" r="13.154"/><circle cx="428.831" cy="288.347" fill="#fedf30" r="13.154"/><circle cx="351.421" cy="288.347" fill="#eb5569" r="13.154"/><path d="m134.015 272.421h-14.961c-1.965 0-3.559-1.593-3.559-3.559v-14.961c0-4.171-3.382-7.553-7.553-7.553h-15.63c-4.171 0-7.553 3.382-7.553 7.553v14.961c0 1.965-1.593 3.559-3.559 3.559h-14.962c-4.171 0-7.553 3.382-7.553 7.553v15.63c0 4.172 3.382 7.553 7.553 7.553h14.962c1.965 0 3.559 1.593 3.559 3.559v14.961c0 4.172 3.382 7.553 7.553 7.553h15.63c4.171 0 7.553-3.382 7.553-7.553v-14.961c0-1.965 1.593-3.559 3.559-3.559h14.961c4.171 0 7.553-3.382 7.553-7.553v-15.63c0-4.171-3.381-7.553-7.553-7.553z" fill="#baafb9"/><path d="m115.495 268.862v-14.961c0-4.172-3.382-7.553-7.553-7.553h-15.63c-4.172 0-7.553 3.382-7.553 7.553v14.961c0 1.965-1.593 3.559-3.559 3.559h-14.962c-4.172 0-7.553 3.382-7.553 7.553v15.63c0 4.172 3.382 7.553 7.553 7.553h14.962c1.965 0 3.559 1.593 3.559 3.559v14.961c0 4.172 3.382 7.553 7.553 7.553h11.252l12.854-57.998c-.568-.63-.923-1.455-.923-2.37z" fill="#aa9ea9"/></g></svg>